<svg xmlns="http://www.w3.org/2000/svg" xmlns:xlink="http://www.w3.org/1999/xlink" width="300" height="169" viewBox="0 0 300 169"><rect width="100%" height="100%" fill="#DDDDDD"/><path d="M62.07 78.41L59.40 77.94Q59.71 75.81 60.59 74.20Q61.47 72.59 62.79 71.51Q64.12 70.44 65.83 69.89Q67.54 69.35 69.51 69.35L69.51 69.35Q71.56 69.35 73.21 69.93Q74.86 70.52 76.03 71.55Q77.19 72.59 77.82 73.98Q78.44 75.38 78.44 77.00L78.44 77.00Q78.44 78.41 78.13 79.49Q77.81 80.56 77.21 81.36Q76.62 82.16 75.74 82.72Q74.86 83.27 73.75 83.64L73.75 83.64Q76.42 84.48 77.73 86.20Q79.04 87.92 79.04 90.53L79.04 90.53Q79.04 92.74 78.22 94.44Q77.40 96.14 76.01 97.30Q74.61 98.46 72.78 99.06Q70.94 99.65 68.89 99.65L68.89 99.65Q66.66 99.65 65.00 99.14Q63.34 98.62 62.11 97.62Q60.88 96.62 60.02 95.16Q59.15 93.70 58.54 91.80L58.54 91.80L60.77 90.88Q61.66 90.51 62.42 90.68Q63.19 90.86 63.54 91.51L63.54 91.51Q63.91 92.23 64.35 92.93Q64.79 93.62 65.41 94.17Q66.02 94.71 66.85 95.05Q67.68 95.39 68.83 95.39L68.83 95.39Q70.12 95.39 71.09 94.97Q72.05 94.55 72.69 93.87Q73.34 93.19 73.66 92.36Q73.98 91.53 73.98 90.69L73.98 90.69Q73.98 89.63 73.75 88.75Q73.52 87.88 72.81 87.27Q72.09 86.65 70.75 86.30Q69.40 85.96 67.15 85.96L67.15 85.96L67.15 82.35Q69.01 82.33 70.24 82.00Q71.47 81.67 72.20 81.09Q72.93 80.50 73.22 79.68Q73.50 78.86 73.50 77.88L73.50 77.88Q73.50 75.79 72.34 74.70Q71.17 73.61 69.22 73.61L69.22 73.61Q68.32 73.61 67.56 73.87Q66.80 74.13 66.20 74.59Q65.59 75.05 65.18 75.66Q64.77 76.28 64.57 77.02L64.57 77.02Q64.22 77.96 63.65 78.27Q63.09 78.58 62.07 78.41L62.07 78.41ZM103.72 84.50L103.72 84.50Q103.72 88.37 102.89 91.23Q102.06 94.09 100.59 95.96Q99.13 97.83 97.13 98.74Q95.13 99.65 92.82 99.65L92.82 99.65Q90.50 99.65 88.52 98.74Q86.54 97.83 85.09 95.96Q83.63 94.09 82.81 91.23Q81.99 88.37 81.99 84.50L81.99 84.50Q81.99 80.61 82.81 77.76Q83.63 74.91 85.09 73.04Q86.54 71.17 88.52 70.26Q90.50 69.35 92.82 69.35L92.82 69.35Q95.13 69.35 97.13 70.26Q99.13 71.17 100.59 73.04Q102.06 74.91 102.89 77.76Q103.72 80.61 103.72 84.50ZM98.49 84.50L98.49 84.50Q98.49 81.28 98.02 79.17Q97.55 77.06 96.76 75.81Q95.97 74.56 94.95 74.06Q93.92 73.55 92.82 73.55L92.82 73.55Q91.73 73.55 90.71 74.06Q89.70 74.56 88.92 75.81Q88.14 77.06 87.68 79.17Q87.22 81.28 87.22 84.50L87.22 84.50Q87.22 87.72 87.68 89.83Q88.14 91.94 88.92 93.19Q89.70 94.44 90.71 94.94Q91.73 95.45 92.82 95.45L92.82 95.45Q93.92 95.45 94.95 94.94Q95.97 94.44 96.76 93.19Q97.55 91.94 98.02 89.83Q98.49 87.72 98.49 84.50ZM127.50 84.50L127.50 84.50Q127.50 88.37 126.67 91.23Q125.84 94.09 124.38 95.96Q122.91 97.83 120.91 98.74Q118.91 99.65 116.60 99.65L116.60 99.65Q114.28 99.65 112.30 98.74Q110.32 97.83 108.87 95.96Q107.41 94.09 106.59 91.23Q105.77 88.37 105.77 84.50L105.77 84.50Q105.77 80.61 106.59 77.76Q107.41 74.91 108.87 73.04Q110.32 71.17 112.30 70.26Q114.28 69.35 116.60 69.35L116.60 69.35Q118.91 69.35 120.91 70.26Q122.91 71.17 124.38 73.04Q125.84 74.91 126.67 77.76Q127.50 80.61 127.50 84.50ZM122.27 84.50L122.27 84.50Q122.27 81.28 121.80 79.17Q121.33 77.06 120.54 75.81Q119.75 74.56 118.73 74.06Q117.70 73.55 116.60 73.55L116.60 73.55Q115.51 73.55 114.49 74.06Q113.48 74.56 112.70 75.81Q111.92 77.06 111.46 79.17Q111.00 81.28 111.00 84.50L111.00 84.50Q111.00 87.72 111.46 89.83Q111.92 91.94 112.70 93.19Q113.48 94.44 114.49 94.94Q115.51 95.45 116.60 95.45L116.60 95.45Q117.70 95.45 118.73 94.94Q119.75 94.44 120.54 93.19Q121.33 91.94 121.80 89.83Q122.27 87.72 122.27 84.50ZM160.06 92.54L157.37 95.18L150.42 88.23L143.41 95.22L140.72 92.58L147.73 85.55L141.05 78.86L143.72 76.20L150.40 82.88L157.04 76.24L159.75 78.90L153.09 85.57L160.06 92.54ZM188.12 95.53L193.45 95.53L193.45 99.32L177.05 99.32L177.05 95.53L183.06 95.53L183.06 78.25Q183.06 77.22 183.12 76.14L183.12 76.14L178.85 79.70Q178.48 79.99 178.13 80.06Q177.77 80.13 177.45 80.07Q177.13 80.01 176.89 79.86Q176.64 79.70 176.52 79.52L176.52 79.52L174.92 77.33L183.96 69.64L188.12 69.64L188.12 95.53ZM215.51 69.68L206.71 80.44L205.69 81.71Q206.55 81.28 207.54 81.05Q208.54 80.81 209.69 80.81L209.69 80.81Q211.37 80.81 212.96 81.36Q214.54 81.92 215.75 83.03Q216.96 84.15 217.70 85.81Q218.44 87.47 218.44 89.69L218.44 89.69Q218.44 91.76 217.68 93.57Q216.92 95.39 215.55 96.74Q214.18 98.09 212.24 98.87Q210.30 99.65 207.96 99.65L207.96 99.65Q205.59 99.65 203.70 98.89Q201.81 98.13 200.48 96.77Q199.15 95.41 198.44 93.49Q197.73 91.57 197.73 89.24L197.73 89.24Q197.73 87.14 198.59 84.94Q199.44 82.74 201.22 80.36L201.22 80.36L208.29 70.87Q208.66 70.38 209.37 70.03Q210.08 69.68 211.00 69.68L211.00 69.68L215.51 69.68ZM207.86 95.51L207.86 95.51Q209.07 95.51 210.09 95.10Q211.10 94.69 211.83 93.95Q212.56 93.21 212.97 92.22Q213.38 91.22 213.38 90.06L213.38 90.06Q213.38 88.78 212.99 87.77Q212.60 86.75 211.88 86.05Q211.16 85.34 210.16 84.97Q209.15 84.60 207.94 84.60L207.94 84.60Q206.73 84.60 205.75 85.01Q204.77 85.42 204.07 86.15Q203.37 86.88 202.98 87.87Q202.59 88.87 202.59 90.01L202.59 90.01Q202.59 91.24 202.93 92.26Q203.27 93.27 203.94 93.99Q204.60 94.71 205.59 95.11Q206.57 95.51 207.86 95.51ZM226.56 78.58L226.56 78.58Q226.56 81.06 227.84 82.36Q229.12 83.66 231.48 83.66L231.48 83.66Q232.71 83.66 233.67 83.27Q234.63 82.88 235.29 82.20Q235.95 81.53 236.28 80.61Q236.62 79.68 236.62 78.62L236.62 78.62Q236.62 77.41 236.25 76.45Q235.88 75.50 235.21 74.84Q234.53 74.19 233.60 73.84Q232.67 73.49 231.56 73.49L231.56 73.49Q230.41 73.49 229.49 73.87Q228.57 74.25 227.91 74.93Q227.25 75.60 226.91 76.54Q226.56 77.47 226.56 78.58ZM224.08 99.32L233.28 87.82Q233.63 87.39 233.94 86.98Q234.24 86.57 234.53 86.16L234.53 86.16Q233.51 86.82 232.28 87.15Q231.05 87.49 229.69 87.49L229.69 87.49Q228.16 87.49 226.68 86.96Q225.20 86.43 224.06 85.35Q222.91 84.27 222.20 82.69Q221.49 81.10 221.49 78.97L221.49 78.97Q221.49 76.98 222.23 75.23Q222.97 73.49 224.30 72.18Q225.63 70.87 227.50 70.11Q229.37 69.35 231.62 69.35L231.62 69.35Q233.90 69.35 235.71 70.07Q237.52 70.79 238.81 72.08Q240.09 73.37 240.77 75.17Q241.46 76.98 241.46 79.13L241.46 79.13Q241.46 80.50 241.22 81.73Q240.99 82.96 240.56 84.10Q240.13 85.24 239.51 86.32Q238.90 87.41 238.14 88.48L238.14 88.48L231.35 98.15Q231.01 98.64 230.31 98.98Q229.61 99.32 228.73 99.32L228.73 99.32L224.08 99.32Z" fill="#999999"/></svg>